inDegrees=no
num_controls=7
num_derivatives=13
num_iterations=121
num_multipliers=7
num_parameters=0
num_slacks=7
num_states=26
objective=5.968228
objective_accelerations=1.015118
objective_balance=0.026132
objective_effort=0.676683
objective_height=4.142685
objective_ligament=0.107610
solver_duration=1141.760857
status=Solve_Succeeded
success=true
DataType=double
version=3
OpenSimVersion=4.4-2022-07-23-0e9fedc
endheader
time	/jointset/ground_pelvis/pelvis_tilt/value	/jointset/ground_pelvis/pelvis_tx/value	/jointset/ground_pelvis/pelvis_ty/value	/jointset/hip_l/hip_flexion_l/value	/jointset/hip_l/hip_adduction_l/value	/jointset/hip_l/hip_rotation_l/value	/jointset/back/lumbar_extension/value	/jointset/patellofemoral_l/patellar_flexion_l/value	/jointset/knee_l/knee_flexion_l/value	/jointset/knee_l/knee_adduction_l/value	/jointset/knee_l/knee_rotation_l/value	/jointset/ankle_l/ankle_angle_l/value	/jointset/subtalar_l/subtalar_angle_l/value	/jointset/ground_pelvis/pelvis_tilt/speed	/jointset/ground_pelvis/pelvis_tx/speed	/jointset/ground_pelvis/pelvis_ty/speed	/jointset/hip_l/hip_flexion_l/speed	/jointset/hip_l/hip_adduction_l/speed	/jointset/hip_l/hip_rotation_l/speed	/jointset/back/lumbar_extension/speed	/jointset/patellofemoral_l/patellar_flexion_l/speed	/jointset/knee_l/knee_flexion_l/speed	/jointset/knee_l/knee_adduction_l/speed	/jointset/knee_l/knee_rotation_l/speed	/jointset/ankle_l/ankle_angle_l/speed	/jointset/subtalar_l/subtalar_angle_l/speed	/forceset/tau_hip_flexion_l	/forceset/tau_hip_adduction_l	/forceset/tau_hip_rotation_l	/forceset/tau_knee_flexion_l	/forceset/tau_ankle_angle_l	/forceset/tau_subtalar_angle_l	/forceset/tau_lumbar_extension	lambda_cid13_p0	lambda_cid13_p1	lambda_cid13_p2	lambda_cid13_p3	lambda_cid13_p4	lambda_cid13_p5	lambda_cid14_p0	/jointset/ground_pelvis/pelvis_tilt/accel	/jointset/ground_pelvis/pelvis_tx/accel	/jointset/ground_pelvis/pelvis_ty/accel	/jointset/hip_l/hip_flexion_l/accel	/jointset/hip_l/hip_adduction_l/accel	/jointset/hip_l/hip_rotation_l/accel	/jointset/back/lumbar_extension/accel	/jointset/patellofemoral_l/patellar_flexion_l/accel	/jointset/knee_l/knee_flexion_l/accel	/jointset/knee_l/knee_adduction_l/accel	/jointset/knee_l/knee_rotation_l/accel	/jointset/ankle_l/ankle_angle_l/accel	/jointset/subtalar_l/subtalar_angle_l/accel	gamma_cid13_p0	gamma_cid13_p1	gamma_cid13_p2	gamma_cid13_p3	gamma_cid13_p4	gamma_cid13_p5	gamma_cid14_p0
0	-0.0334112690427962	0.05518992159752486	0.9204015125262882	0.3085811930696054	-0.2946555455185593	-0.2801465468071773	-0.3879500408040475	0.249927658227125	0.249927658227084	-0.1745304912568899	-0.1534700168054199	-0.0008036543073733089	0.001181998344703151	0	0	0	0	0	0	0	0	0	0	0	0	0	0.08727761215414159	-0.0165693165219743	-0.01149573750550397	-0.1998538995881858	0.09821663341516802	-0.02770033540856627	-0.03080907888203415	-10.68590358004359	11.32450280764792	0.6835563536988664	51.45317860418776	-581.2767132820247	-52.43792124875723	-22.50766813096186	-2.250858399223857	-3.54950202373452	-1.53309429079509	16.10058619853502	-0.6914480702237247	4.146601259860666	-9.438647354963809	15.13307670523513	15.13307670523628	3.168689733165361	-1.005595746550566	2.264895651178239	0.01579899462441893	5.049039972736602e-08	2.421424088543997e-07	6.896741372413745e-08	-6.398299139546599e-08	4.259990522477891e-07	1.666103206270159e-08	1.246653426740791e-08
0.01	-0.03351715073264404	0.05501539747237706	0.9203265367115546	0.3093666784106686	-0.294690641909803	-0.27993898817851	-0.3884200289798998	0.2506705072123479	0.2506705072124511	-0.1743776732333736	-0.1535160444184945	-0.0006923294030306309	0.001181577870796732	-0.02106018256296446	-0.03463275825083709	-0.01493922831424606	0.1562028923212403	-0.00695812378279892	0.04131762340841553	-0.0931916213325345	0.1478441642144082	0.1478441642144322	0.03044342098273873	-0.009117450895889738	0.02229074607533427	-9.877748235620198e-06	0.07990302565664295	-0.02948537137498117	-0.01080400977875889	-0.1965013778373276	0.09309108534241319	-0.01205916721603383	-0.02306037835373677	-11.88695359715737	4.861552255871961	1.577187680140034	48.98483945626582	-585.5084781578183	-65.39306254188945	-22.5176643219148	-2.016189796162805	-3.379365510614442	-1.465861707259452	15.24600787542078	-0.6888788449472893	4.095230054680519	-9.138517442094583	14.50123885856615	14.5012388585689	2.964190934226033	-0.8516058122857865	2.215040593280166	0.00170370703592652	-2.492475602725295e-09	2.357296891218338e-07	2.198784357370855e-07	5.752507824855226e-09	1.525209552550025e-07	-9.588959833286655e-08	2.63405026351514e-09
0.02	-0.03383015257047906	0.05450270520774325	0.9201038636925746	0.3116873661001934	-0.294793496401396	-0.2793240758810849	-0.3897977529530537	0.2528700283557608	0.2528700283557471	-0.1739240164688315	-0.1536506037503743	-0.0003573217364208379	0.001183275592724549	-0.04142402957882198	-0.06763362789720309	-0.02953944084927486	0.3070404697024877	-0.01355162007121438	0.08147073375081264	-0.1815471594525858	0.2913344315897026	0.2913344315897461	0.06016774810139405	-0.01770634383892067	0.04473655245339998	0.0004236391668390962	0.07252843915935502	-0.04240142622794032	-0.01011228205428812	-0.1931488560859505	0.08796553726979311	0.003582000976624609	-0.01531167782537763	-12.96760294459549	-1.621275955433484	2.472609226961944	46.38729377404933	-587.8978603621092	-78.21000343336502	-22.54689171549254	-2.111591289800498	-3.223124302842113	-1.46529113495171	15.02752321053654	-0.6185225713475037	3.913698646656958	-8.471430712465692	14.26229733741253	14.2622973374128	3.024870960347889	-0.8998841559791675	2.295907711722295	0.1044779272852325	-5.547535093281661e-08	2.293169693892679e-07	3.707894577500336e-07	7.548800704517644e-08	-1.209571417377842e-07	-2.084402287284347e-07	-7.198433740377634e-09
0.03	-0.03434391131682701	0.05366799025695024	0.919736179832869	0.3154910109866815	-0.2949603776984265	-0.2783140337265728	-0.3920355678011876	0.2564832386026871	0.2564832386027434	-0.1731767912597096	-0.1538687726919774	0.000202614237551789	0.001191506822577629	-0.06121263818613824	-0.09905416384118963	-0.04400037468686371	0.4528501307630878	-0.01978024374988136	0.1203399838447665	-0.2653495485020134	0.4306152906907136	0.4306152906907562	0.08909019434600458	-0.02583201236259229	0.06724179761517843	0.001266866871476115	0.06631662062623439	-0.03635977936984933	-0.009800147573886905	-0.1916327215067102	0.09124006029526024	-0.0002956294561298165	-0.00903893654993446	-12.0240454266867	-0.1321393295901807	2.269135382912594	43.77677600371138	-588.8077646538717	-74.07028264139755	-22.59371379431294	-1.895237008199395	-3.063223102769575	-1.436976343934849	14.23192375562032	-0.6184657053778232	3.843834791041919	-8.234703746459713	13.65713260908277	13.65713260908205	2.797944292772804	-0.7545365707044737	2.226515157450134	0.08080426985885415	-9.568027764225423e-08	1.106807160818859e-07	4.847089004467324e-07	1.095134944185719e-07	-3.037790545800479e-07	-3.129045557208771e-07	-2.849520597487615e-08
0.04	-0.03505210442173125	0.05252672897419335	0.9192237902676337	0.3207275997240989	-0.2951882319200748	-0.2769212397510524	-0.3950914186888914	0.2614684879232543	0.261468487923245	-0.1721459390207961	-0.1541653239926716	0.0009873391109540596	0.00120948214503793	-0.08031090127314874	-0.1289428942899787	-0.05848058195523325	0.5936292398956445	-0.02574620499858866	0.1580210979498277	-0.3451543673622588	0.5657422462972005	0.565742246297222	0.1168931540407994	-0.03338281569201149	0.08969433233869774	0.002372457688315827	0.06010480209318093	-0.03031813251190249	-0.009488013094500279	-0.1901165869273719	0.09451458332067124	-0.004173259889037817	-0.00276619527434232	-10.97311146420878	1.342485898992855	2.06307273583295	41.03700410132253	-588.090779761079	-69.79404198985192	-22.65605069980791	-1.973522185737355	-2.91676320380441	-1.469145821107889	14.02141282492805	-0.565990085355681	3.676071448878268	-7.671916674627873	13.43151663850789	13.43151663850411	2.800973650384725	-0.784911117129004	2.285365624068377	0.1569505497249507	-1.356217414935341e-07	-1.026942451569857e-08	5.978656301678384e-07	1.428026928879071e-07	-4.847317677491051e-07	-4.172021548081004e-07	-5.002835528629438e-08
0.05	-0.03594840671874573	0.05109413742361948	0.9185659805688804	0.3273481394261727	-0.2954740074627193	-0.2751587608002889	-0.3989245626894452	0.2677848012264696	0.2677848012265687	-0.170841884262017	-0.1545353844778276	0.001996223177665151	0.001240239127210018	-0.09881921257624712	-0.1573282535544387	-0.0731225239313076	0.7296490485863684	-0.03133910954402817	0.1942609229428553	-0.4208135226675144	0.6968170122407326	0.6968170122408036	0.1437466226065039	-0.04051249841566198	0.1120457821879979	0.00383975553918626	0.05252319328316955	-0.03047180172744061	-0.008833909479052075	-0.1870962881193663	0.09293145127008781	-0.001128214971427485	0.004149158391502396	-11.2002366700368	0.07083094525736064	2.253199304202757	39.04923750029652	-586.9603575614677	-71.18342208250897	-22.73129739280548	-1.769928757097303	-2.762319122356139	-1.467991714958927	13.26781092015034	-0.5455549629036227	3.565778221870621	-7.4137784427561	12.83995643458889	12.83995643459878	2.601914907194341	-0.6593743578583369	2.204530757022488	0.1506747610491091	-1.543498008133864e-07	-8.714517213100973e-08	6.226850263136028e-07	1.609078463083426e-07	-5.746738856598294e-07	-4.492907170184621e-07	-5.921488309604835e-08
0.06	-0.03702588075976961	0.04938511291347789	0.9177604967845462	0.3353039864208862	-0.2958136349155504	-0.2730403155601058	-0.4034944709399294	0.2753907621617192	0.2753907621617182	-0.1692744185280137	-0.1549732172915716	0.003227520961204624	0.001287480159546713	-0.1165452500590195	-0.1842294862035185	-0.08801539907143831	0.8606906984373276	-0.03651658704005575	0.2292143558301293	-0.4925072173437345	0.8236717726767672	0.8236717726769085	0.1695753490734331	-0.04693728145433868	0.1341770757037293	0.00566926772126857	0.04494158447294132	-0.0306254709431441	-0.008179805864950424	-0.1840759893113398	0.0913483192194208	0.001916829946001567	0.01106451205728951	-11.33631561335572	-1.21558262112604	2.444326795622637	36.93953115083045	-584.4554186733799	-72.45520083703205	-22.81644135457871	-1.817067421670248	-2.61993788073006	-1.519332453919205	13.02578105697533	-0.4829046754733758	3.418793027727399	-6.87882454881946	12.58751553700855	12.58751553700891	2.596025230629746	-0.6439311801345655	2.241334357352668	0.2293934159666067	-1.721846641529681e-07	-1.621651558312778e-07	6.437849557825106e-07	1.783736715161929e-07	-6.607839785070449e-07	-4.783388987287453e-07	-6.78815531583638e-08
0.07000000000000001	-0.03827758155858251	0.04741452885654511	0.9168043756827863	0.3445470483403682	-0.2962027476701353	-0.2705794843589637	-0.4087608048168905	0.2842451678181565	0.2842451678181741	-0.167453245335028	-0.1554724940994339	0.00467926810178027	0.001355137482802268	-0.1336696683542325	-0.2096333681671331	-0.1032798623222954	0.9871085811253713	-0.04123580746645115	0.2627202803622265	-0.5601213586698742	0.9465160626691251	0.9465160626695036	0.1944705710470911	-0.0528062530509722	0.156129763198856	0.007921755503818705	0.03758913542065331	-0.02906241265366141	-0.007654229541868804	-0.1822526798498871	0.09178822524965173	0.002831423415266806	0.01766227801575608	-10.89783266591108	-1.677776311511059	2.504546639047181	34.63934279641915	-581.7952013963577	-71.94187686030698	-22.90805259965503	-1.64133194537234	-2.462483919793324	-1.540792617621452	12.32782225367034	-0.4559706873905034	3.281642638252114	-6.606979014472811	12.02890501993897	12.02890501997446	2.407997367010132	-0.5414881742501449	2.165842085971777	0.2320626612138737	-1.824193782257123e-07	-3.196001056650547e-07	6.246957110049667e-07	1.723671861396914e-07	-6.890700051635557e-07	-4.946560419059202e-07	-8.421444921278228e-08
0.08	-0.03969676712280888	0.04519753186684755	0.9156934520771277	0.355029895162486	-0.2966369606212178	-0.2677905638180372	-0.4146841341251239	0.2943072202325013	0.294307220232512	-0.1653887745850882	-0.1560270822281151	0.006349263345383787	0.001447096924246074	-0.1500422031261698	-0.2335120727564736	-0.1189758998511988	1.108647678971427	-0.04553662633960024	0.2948322237863965	-0.6239063035941892	1.065201124245056	1.065201124245679	0.2182348604718206	-0.05799954564050445	0.1778266963091214	0.01052969135894023	0.03023668636857698	-0.0274993543641093	-0.007128653219423609	-0.1804293703881918	0.09222813127997474	0.003746016884643727	0.02426004397430625	-10.38482042143421	-2.150745688639368	2.563887327947916	32.22880348745662	-578.0202322666374	-71.32328650006549	-23.00244669616949	-1.666690717013315	-2.314902405876854	-1.605647309528517	12.05002408857803	-0.3992243648241249	3.139996806141754	-6.11298526845325	11.7556698537234	11.75566985372506	2.369838720844163	-0.5087953787146007	2.190183480378561	0.3004830304802207	-1.921637600876928e-07	-4.823521500880901e-07	6.03013616276039e-07	1.648463581448446e-07	-7.136254469045373e-07	-5.101518277583783e-07	-1.010419404924977e-07
0.09	-0.0412766197556939	0.04274932242950698	0.9144230801667806	0.3667052652473453	-0.2971118775827293	-0.2646883067029567	-0.4212255401970104	0.3055362249536977	0.305536224953752	-0.1630916657960453	-0.1566310823747324	0.008235060669418237	0.001567185196488412	-0.1657968418826734	-0.255877684847272	-0.1351880286111281	1.225626850998359	-0.04936895784443877	0.3253811793863206	-0.6837583252000268	1.179910621392991	1.179910621393375	0.2410028000955693	-0.06268446573167044	0.1992752321921762	0.01355100925124669	0.02256340851424735	-0.02611434502465543	-0.006602063235699627	-0.1787681502336399	0.09235268008883687	0.004993131773660626	0.0309650765315757	-9.977770411337778	-2.74659236017358	2.639409343455535	30.02154606819692	-574.4184672216932	-70.9212750212923	-23.09566684179877	-1.510112854370176	-2.159538287515533	-1.642570740260105	11.40194065416639	-0.3635711347449866	2.976521268012411	-5.828822766242246	11.22523033508921	11.22523033505249	2.202629192764235	-0.4308164095527744	2.113540834791718	0.3124230464550123	-1.971215215052127e-07	-6.491758752006999e-07	5.684143435619953e-07	1.484763379718873e-07	-7.121236190100411e-07	-5.170199382596117e-07	-1.178722272578599e-07
